# xmcd
#
# Track frame offsets:
#	150
#	15459
#	39609
#	62960
#	81545
#	99422
#	135197
#	154638
#
# Disc length: 2306 seconds
#
# Revision: 0
# Processed by: cddbd v1.5.2PL0 Copyright (c) Steve Scherf et al.
# Submitted via: audiograbber 1.83.01
#
DISCID=5c090008
DTITLE=Golden Earring - Complete Studio Recordings [CD 16) - Cut [remastered 20
DTITLE=17]
DYEAR=1982
DGENRE=Rock
TTITLE0=The Devil Made Me Do It
TTITLE1=Future
TTITLE2=Baby Dynamite
TTITLE3=Last Of The Mohicans
TTITLE4=Lost And Found
TTITLE5=Twilight Zone
TTITLE6=Chargin' Up My Batteries
TTITLE7=Secrets
EXTD=
EXTT0=
EXTT1=
EXTT2=
EXTT3=
EXTT4=
EXTT5=
EXTT6=
EXTT7=
PLAYORDER=
